# xmcd CD database file
#
# Track frame offsets:
#	150
#	40634
#	71125
#	110487
#	158015
#	193147
#	207316
#
# Disc length: 3656 seconds
#
# Revision: 0
# Processed by: cddbd v1.5.2PL0 Copyright (c) Steve Scherf et al.
# Submitted via: CDex 1.70beta2
#
DISCID=5f0e4607
DTITLE=Charles Mingus CD2 - Jazz Experiments - Pithecantropus Erectus
DYEAR=1900
DGENRE=Jazz
TTITLE0=Four Hands
TTITLE1=Thrice Upon a Time
TTITLE2=The Spur of the Moment
TTITLE3=Pithecantropus erectus
TTITLE4=A Foggy Day
TTITLE5=Profile of Jackie
TTITLE6=Love Chant
EXTD=
EXTT0=
EXTT1=
EXTT2=
EXTT3=
EXTT4=
EXTT5=
EXTT6=
PLAYORDER=
